<svg xmlns="http://www.w3.org/2000/svg" width="328.567" height="87.846" viewBox="0 0 328.567 87.846">
  <g id="Vector_Smart_Object" data-name="Vector Smart Object" transform="translate(-105.929 -103.791)">
    <path id="Path_7" data-name="Path 7" d="M192.96,125.8h9.368l.787,3.326c2.276-2.363,5.778-3.677,10.857-3.677a18.673,18.673,0,0,1,5.69.875v10.855a20.383,20.383,0,0,0-4.64-.525c-7.529,0-10.856,3.677-11.031,11.2v25.56H192.96Z" fill="#fff"/>
    <path id="Path_8" data-name="Path 8" d="M221.587,149.694c0-14.882,9.28-24.16,24.164-24.16,7.7,0,13.832,2.451,17.946,7.09,4.115,4.727,5.866,11.555,4.641,19.7l-.35,2.363H233.231c0,5.427,5.953,8.841,13.045,8.841a15.878,15.878,0,0,0,12.081-5.165l7.18,7.178c-4.29,5.341-11.381,8.317-19.786,8.317C230.867,173.855,221.587,164.576,221.587,149.694Zm11.469-4.289h24.776a10.457,10.457,0,0,0-2.276-5.6c-2.013-2.363-5.69-3.589-10.593-3.5C240.322,136.389,233.756,137.877,233.056,145.405Z" fill="#fff"/>
    <path id="Path_9" data-name="Path 9" d="M282.929,125.622l13.657,30.813,13.657-30.813h12.169L300.7,173.242h-8.23l-21.711-47.62Z" fill="#fff"/>
    <path id="Path_10" data-name="Path 10" d="M329.968,109.928c3.676,0,5.778,2.013,5.865,5.865.088,3.764-2.189,5.865-5.865,5.865s-5.866-2.1-5.866-5.865C324.1,111.941,326.116,109.928,329.968,109.928Z" fill="#fff"/>
    <rect id="Rectangle_1" data-name="Rectangle 1" width="11.031" height="47.62" transform="translate(324.452 125.797)" fill="#fff"/>
    <path id="Path_11" data-name="Path 11" d="M349.577,125.8l13.657,30.813L376.891,125.8H389.06l-21.712,47.62h-8.23L337.408,125.8Z" fill="#fff"/>
    <path id="Path_12" data-name="Path 12" d="M387.361,149.694c0-14.882,9.28-24.16,24.164-24.16,7.7,0,13.832,2.451,17.947,7.09,4.114,4.727,5.866,11.555,4.64,19.7l-.35,2.363H399.005c0,5.427,5.953,8.841,13.045,8.841a15.878,15.878,0,0,0,12.081-5.165l7.18,7.178c-4.29,5.341-11.381,8.317-19.786,8.317C396.641,173.855,387.361,164.576,387.361,149.694Zm11.469-4.289h24.776a10.457,10.457,0,0,0-2.276-5.6c-2.013-2.363-5.69-3.589-10.593-3.5C406.1,136.389,399.531,137.877,398.831,145.405Z" fill="#fff"/>
    <path id="Path_13" data-name="Path 13" d="M119.42,155.145v22.1a.663.663,0,0,0,.663.663h5.3a.663.663,0,0,0,.663-.663V157.655a.662.662,0,0,1,.765-.654,28.132,28.132,0,0,0,3,.3,25.81,25.81,0,0,0,13.235-2.864,19.131,19.131,0,0,0,7.214-6.593,18.654,18.654,0,0,0,2.846-10.175,16.848,16.848,0,1,0-33.7.2v7.8a.662.662,0,0,1-1.093.5c-3.329-2.893-6.41-7.9-5.656-16.387.4-4.542,3.3-19.361,23.6-19.361,14.175,0,26.15,12.477,26.15,27.247a26.021,26.021,0,0,1-12.338,22.208,3.314,3.314,0,0,0-.735,5l11.275,12.81a.665.665,0,0,0,.5.225h7.065a.663.663,0,0,0,.5-1.1L157.2,163.771a.661.661,0,0,1,.071-.944,32.72,32.72,0,0,0,11.773-25.16,33.777,33.777,0,0,0-2.564-12.9A34.708,34.708,0,0,0,159.5,114a33.187,33.187,0,0,0-10.4-7.428,30.954,30.954,0,0,0-12.835-2.782c-9.016,0-16.617,2.683-21.98,7.76a27.488,27.488,0,0,0-8.22,17.643c-.922,10.364,2.779,18.845,10.419,23.88a24.748,24.748,0,0,0,2.562,1.476A.664.664,0,0,1,119.42,155.145Zm6.63-17.478a10.232,10.232,0,0,1,9.145-10.161,10.344,10.344,0,0,1,11.272,10.919A11.812,11.812,0,0,1,139.91,148.6a19.647,19.647,0,0,1-13.336,1.62.666.666,0,0,1-.524-.649Z" fill="#87c8c6"/>
    <path id="Path_14" data-name="Path 14" d="M305.7,189.224h.973a1.617,1.617,0,0,0,.146.457,1.559,1.559,0,0,0,.416.521,2.438,2.438,0,0,0,.8.427,4.055,4.055,0,0,0,1.313.176,4.359,4.359,0,0,0,1.3-.164,1.984,1.984,0,0,0,.821-.469.91.91,0,0,0,.187-.3,1.7,1.7,0,0,0,.082-.3,1.587,1.587,0,0,0,.011-.328,2.141,2.141,0,0,0-.058-.305.789.789,0,0,0-.287-.386,2.633,2.633,0,0,0-.738-.386,6.936,6.936,0,0,0-1.412-.317,5.268,5.268,0,0,1-2.472-.826,1.733,1.733,0,0,1-.691-1.587,1.957,1.957,0,0,1,.27-.884,2.068,2.068,0,0,1,.65-.668,3.225,3.225,0,0,1,.99-.423,5.251,5.251,0,0,1,1.289-.146,3.582,3.582,0,0,1,2.238.656,2.27,2.27,0,0,1,.878,1.746h-.949a1.784,1.784,0,0,0-.064-.4,1.312,1.312,0,0,0-.3-.527,1.765,1.765,0,0,0-.75-.474,3.341,3.341,0,0,0-1.114-.17,3.248,3.248,0,0,0-1.6.34,1.167,1.167,0,0,0-.645.961c0,.03,0,.082-.005.152a.723.723,0,0,0,.041.252.962.962,0,0,0,.182.31,1.414,1.414,0,0,0,.4.316,3.611,3.611,0,0,0,.709.288,6.643,6.643,0,0,0,1.1.217,7.75,7.75,0,0,1,1.757.4,3.148,3.148,0,0,1,1.025.592,1.611,1.611,0,0,1,.469.714,2.389,2.389,0,0,1,.1.744,1.83,1.83,0,0,1-.217.8,2.089,2.089,0,0,1-.621.7,3.412,3.412,0,0,1-1.043.5,5.11,5.11,0,0,1-1.494.194,6.32,6.32,0,0,1-1.207-.123,4.091,4.091,0,0,1-1.16-.4,2.778,2.778,0,0,1-.891-.743A2.1,2.1,0,0,1,305.7,189.224Z" fill="#87c8c6"/>
    <path id="Path_15" data-name="Path 15" d="M320.3,183.378h3.4a5.774,5.774,0,0,1,1.148.111,2.755,2.755,0,0,1,.984.4,2.054,2.054,0,0,1,.692.779,3.175,3.175,0,0,1,0,2.507,2.06,2.06,0,0,1-.692.779,2.754,2.754,0,0,1-.984.4,5.774,5.774,0,0,1-1.148.111h-2.519v3.116H320.3Zm.878.75v3.585h2.472a5.514,5.514,0,0,0,.8-.059,1.92,1.92,0,0,0,.72-.252,1.454,1.454,0,0,0,.522-.545,2.3,2.3,0,0,0,0-1.874,1.414,1.414,0,0,0-.522-.539,2.1,2.1,0,0,0-.72-.252,5.02,5.02,0,0,0-.8-.064Z" fill="#87c8c6"/>
    <path id="Path_16" data-name="Path 16" d="M333.976,187.478a5.072,5.072,0,0,1,.281-1.751,3.6,3.6,0,0,1,.814-1.306,3.48,3.48,0,0,1,1.307-.82,5.123,5.123,0,0,1,1.757-.281,5.071,5.071,0,0,1,1.752.281,3.485,3.485,0,0,1,1.3.82,3.588,3.588,0,0,1,.814,1.306,5.613,5.613,0,0,1,0,3.509,3.412,3.412,0,0,1-2.115,2.12,5.071,5.071,0,0,1-1.752.282,5.123,5.123,0,0,1-1.757-.282,3.4,3.4,0,0,1-2.121-2.12A5.119,5.119,0,0,1,333.976,187.478Zm4.159,3.41a3.2,3.2,0,0,0,2.419-.873,4.256,4.256,0,0,0,0-5.073,3.8,3.8,0,0,0-4.85,0,4.256,4.256,0,0,0,0,5.073A3.211,3.211,0,0,0,338.135,190.887Z" fill="#87c8c6"/>
    <path id="Path_17" data-name="Path 17" d="M353.237,183.378a5.774,5.774,0,0,1,1.148.111,2.753,2.753,0,0,1,.984.4,2.065,2.065,0,0,1,.692.779,2.69,2.69,0,0,1,.257,1.253,2.96,2.96,0,0,1-.158,1.025,2.039,2.039,0,0,1-.439.721,2.1,2.1,0,0,1-.656.463,3.513,3.513,0,0,1-.809.252l2.273,3.2h-.984l-2.214-3.116h-2.613v3.116h-.878v-8.2Zm-.047,4.334a5.51,5.51,0,0,0,.8-.059,1.923,1.923,0,0,0,.721-.252,1.46,1.46,0,0,0,.522-.545,2.305,2.305,0,0,0,0-1.874,1.419,1.419,0,0,0-.522-.539,2.108,2.108,0,0,0-.721-.252,5.017,5.017,0,0,0-.8-.064h-2.473v3.585Z" fill="#87c8c6"/>
    <path id="Path_18" data-name="Path 18" d="M363.055,184.127v-.75h6.878v.75h-3v7.451h-.878v-7.451Z" fill="#87c8c6"/>
    <path id="Path_19" data-name="Path 19" d="M376.635,189.224h.972a1.664,1.664,0,0,0,.147.457,1.558,1.558,0,0,0,.416.521,2.429,2.429,0,0,0,.8.427,4.043,4.043,0,0,0,1.311.176,4.371,4.371,0,0,0,1.3-.164,1.979,1.979,0,0,0,.82-.469.9.9,0,0,0,.188-.3,1.373,1.373,0,0,0,.094-.626,2.356,2.356,0,0,0-.058-.305.793.793,0,0,0-.288-.386,2.631,2.631,0,0,0-.737-.386,6.951,6.951,0,0,0-1.413-.317,5.27,5.27,0,0,1-2.472-.826,1.737,1.737,0,0,1-.692-1.587,1.973,1.973,0,0,1,.27-.884,2.057,2.057,0,0,1,.65-.668,3.207,3.207,0,0,1,.99-.423,5.251,5.251,0,0,1,1.289-.146,3.58,3.58,0,0,1,2.238.656,2.267,2.267,0,0,1,.878,1.746h-.949a1.786,1.786,0,0,0-.064-.4,1.307,1.307,0,0,0-.3-.527,1.753,1.753,0,0,0-.75-.474,3.336,3.336,0,0,0-1.112-.17,3.249,3.249,0,0,0-1.605.34,1.165,1.165,0,0,0-.644.961c0,.03,0,.082-.006.152a.751.751,0,0,0,.04.252.978.978,0,0,0,.182.31,1.4,1.4,0,0,0,.405.316,3.565,3.565,0,0,0,.708.288,6.625,6.625,0,0,0,1.1.217,7.76,7.76,0,0,1,1.757.4,3.155,3.155,0,0,1,1.025.592,1.6,1.6,0,0,1,.469.714,2.37,2.37,0,0,1,.1.744,1.812,1.812,0,0,1-.217.8,2.1,2.1,0,0,1-.62.7,3.42,3.42,0,0,1-1.043.5,5.119,5.119,0,0,1-1.495.194,6.33,6.33,0,0,1-1.207-.123,4.1,4.1,0,0,1-1.16-.4,2.783,2.783,0,0,1-.89-.743A2.1,2.1,0,0,1,376.635,189.224Z" fill="#87c8c6"/>
    <path id="Path_20" data-name="Path 20" d="M398.487,191.578v-4.335l-2.309,4.335h-.89l-2.308-4.335v4.335h-1.64v-8.2h1.535l2.859,5.588,2.859-5.588h1.535v8.2Z" fill="#87c8c6"/>
    <path id="Path_21" data-name="Path 21" d="M408.153,183.378h6V184.9h-4.358v1.816h4.194v1.523h-4.194v1.817h4.51v1.523h-6.151Z" fill="#87c8c6"/>
    <path id="Path_22" data-name="Path 22" d="M421.674,191.578v-8.2h3.456a4.1,4.1,0,0,1,0,8.2Zm1.64-6.678v5.155h1.8c1.617,0,2.437-.867,2.437-2.578s-.809-2.577-2.413-2.577Z" fill="#87c8c6"/>
  </g>
</svg>
