<svg id="Vector_Smart_Object" data-name="Vector Smart Object" xmlns="http://www.w3.org/2000/svg" xmlns:xlink="http://www.w3.org/1999/xlink" width="65" height="77" viewBox="0 0 65 77">
  <defs>
    <clipPath id="clip-path">
      <rect id="Rectangle_9" data-name="Rectangle 9" width="65" height="77" fill="none"/>
    </clipPath>
  </defs>
  <g id="Group_18" data-name="Group 18">
    <g id="Group_17" data-name="Group 17" clip-path="url(#clip-path)">
      <path id="Path_86" data-name="Path 86" d="M13.893,53.349V76.311a.686.686,0,0,0,.682.689h5.462a.686.686,0,0,0,.683-.689V55.957a.684.684,0,0,1,.788-.679,28.721,28.721,0,0,0,3.094.31,26.383,26.383,0,0,0,13.63-2.976,19.764,19.764,0,0,0,7.43-6.849,19.514,19.514,0,0,0,2.931-10.571,17.352,17.352,0,1,0-34.7.207v8.1a.682.682,0,0,1-1.126.524C9.339,41.019,6.166,35.82,6.944,27c.416-4.718,3.4-20.114,24.3-20.114,14.6,0,26.93,12.962,26.93,28.306a27.086,27.086,0,0,1-12.707,23.07,3.462,3.462,0,0,0-.757,5.2L56.321,76.766a.681.681,0,0,0,.513.234H64.11a.69.69,0,0,0,.513-1.144L52.8,62.311a.691.691,0,0,1,.074-.982A34.091,34.091,0,0,0,65,35.192a35.355,35.355,0,0,0-2.641-13.4,36.072,36.072,0,0,0-7.187-11.185A34.188,34.188,0,0,0,44.461,2.89,31.646,31.646,0,0,0,31.243,0C21.958,0,14.13,2.788,8.608,8.061A28.662,28.662,0,0,0,.143,26.39C-.807,37.157,3,45.968,10.873,51.2a25.487,25.487,0,0,0,2.638,1.533.693.693,0,0,1,.383.618M20.72,35.192a10.531,10.531,0,1,1,21.025.787,12.271,12.271,0,0,1-6.751,10.569A20.069,20.069,0,0,1,21.26,48.231a.69.69,0,0,1-.54-.674Z" fill="#87c8c6"/>
    </g>
  </g>
</svg>
