<?xml version="1.0" standalone="no"?>
<!DOCTYPE svg PUBLIC "-//W3C//DTD SVG 20010904//EN"
 "http://www.w3.org/TR/2001/REC-SVG-20010904/DTD/svg10.dtd">
<svg version="1.0" xmlns="http://www.w3.org/2000/svg"
 width="616.000000pt" height="616.000000pt" viewBox="0 0 616.000000 616.000000"
 preserveAspectRatio="xMidYMid meet">
<metadata>
Created by potrace 1.14, written by Peter Selinger 2001-2017
</metadata>
<g transform="translate(0.000000,616.000000) scale(0.100000,-0.100000)"
fill="#000000" stroke="none">
<path d="M2758 6155 c-1 -1 -42 -6 -90 -9 -48 -3 -93 -8 -100 -10 -7 -3 -36
-7 -65 -10 -220 -24 -533 -115 -755 -219 -90 -42 -287 -152 -298 -167 -3 -3
-21 -16 -40 -28 -20 -11 -45 -29 -57 -39 -12 -10 -41 -33 -65 -52 -87 -70
-252 -241 -331 -346 -125 -165 -235 -360 -307 -541 -59 -147 -119 -364 -136
-490 -3 -27 -8 -57 -10 -68 -12 -62 -18 -196 -18 -371 -1 -216 6 -307 31 -440
4 -22 8 -44 8 -50 1 -5 4 -23 8 -40 4 -16 9 -40 11 -51 3 -12 11 -43 20 -68 9
-26 16 -52 16 -59 0 -19 74 -205 112 -283 152 -307 354 -540 642 -738 69 -48
103 -69 187 -113 26 -13 53 -30 58 -37 8 -9 11 -296 11 -947 0 -830 2 -937 16
-957 15 -22 18 -22 258 -22 214 0 245 2 257 17 12 13 14 159 15 851 l1 835 23
19 c22 18 60 18 140 1 14 -3 111 -6 215 -8 168 -3 247 1 363 20 17 3 49 8 70
11 58 9 218 53 317 86 143 49 385 173 460 235 6 5 28 22 50 38 67 50 149 128
234 225 41 47 152 212 184 275 72 144 121 287 152 447 20 99 26 358 12 477
-39 331 -217 660 -478 884 -63 55 -223 158 -301 195 -76 36 -254 98 -308 106
-19 3 -46 8 -60 11 -150 31 -381 22 -560 -22 -310 -76 -555 -236 -780 -510
-74 -90 -201 -345 -225 -453 -2 -8 -10 -44 -19 -80 -8 -36 -18 -81 -22 -100
-3 -19 -8 -224 -11 -455 -2 -231 -6 -430 -9 -443 -6 -28 -42 -43 -69 -29 -50
26 -190 182 -253 282 -127 201 -200 419 -228 685 -12 113 -6 381 12 493 3 20
7 47 9 60 17 105 77 317 117 407 42 96 93 195 100 198 4 2 8 8 8 14 0 11 60
104 105 163 75 98 157 183 250 259 96 79 105 86 110 86 2 0 23 13 47 29 68 45
185 105 284 144 105 42 324 104 397 113 28 3 54 7 57 9 4 2 29 7 56 10 27 3
74 8 104 11 76 9 454 9 515 1 75 -11 128 -19 145 -23 116 -25 160 -37 245 -64
55 -18 105 -35 110 -38 6 -4 15 -7 20 -8 43 -7 374 -185 383 -206 2 -5 10 -8
18 -8 8 0 14 -3 14 -7 0 -5 12 -15 28 -24 101 -58 335 -279 453 -429 72 -90
175 -240 209 -302 80 -150 136 -274 182 -408 30 -88 73 -249 83 -310 3 -19 7
-46 10 -60 7 -41 17 -112 21 -160 5 -56 5 -363 0 -410 -18 -173 -53 -338 -100
-477 -19 -54 -39 -111 -46 -128 -7 -16 -14 -35 -16 -42 -3 -15 -85 -179 -120
-239 -162 -282 -405 -540 -683 -727 -95 -63 -114 -81 -144 -140 -55 -110 -29
-230 78 -349 17 -18 59 -67 95 -108 36 -41 67 -77 70 -80 3 -3 30 -34 60 -69
30 -36 62 -72 70 -81 8 -9 40 -45 71 -81 31 -35 125 -143 209 -239 84 -96 178
-204 209 -239 31 -36 72 -82 92 -103 l37 -38 310 0 c269 0 313 2 326 16 28 27
19 64 -26 113 -24 26 -65 73 -93 105 -27 32 -54 64 -60 70 -5 6 -39 45 -75 86
-98 113 -132 152 -162 182 -14 15 -24 28 -22 28 3 0 -5 11 -18 23 -13 13 -45
50 -73 82 -27 32 -54 63 -60 69 -29 32 -96 109 -145 165 -30 35 -60 69 -65 75
-6 6 -35 40 -65 75 -30 36 -63 73 -72 83 -31 32 -22 58 44 117 216 197 376
386 515 609 60 96 151 269 191 362 84 197 167 485 187 655 3 22 7 49 10 61 13
61 20 181 20 369 -1 236 -11 364 -39 491 -2 12 -7 39 -10 60 -4 22 -9 47 -12
56 -3 9 -6 25 -8 35 -2 10 -9 38 -16 63 -7 25 -13 52 -15 60 -5 28 -97 295
-110 320 -7 14 -21 43 -30 65 -32 73 -111 229 -138 272 -15 24 -27 45 -27 48
0 11 -139 212 -204 295 -120 153 -271 310 -410 425 -27 22 -56 47 -65 55 -20
18 -34 28 -149 107 -225 155 -462 271 -707 347 -93 29 -285 75 -335 81 -44 5
-128 18 -145 22 -22 6 -491 13 -497 8z m327 -1969 c319 -37 593 -263 694 -573
41 -126 52 -239 36 -391 -7 -67 -7 -71 -24 -144 -58 -254 -248 -500 -486 -628
-143 -76 -311 -135 -480 -166 -139 -26 -449 -26 -565 0 -14 3 -39 9 -57 12
-69 13 -66 -14 -66 571 0 466 5 632 18 653 2 4 7 22 10 40 9 52 54 157 99 234
44 75 171 210 235 250 43 27 167 94 179 97 4 1 12 3 17 5 67 21 131 36 180 40
33 3 61 7 62 8 4 3 97 -2 148 -8z"/>
</g>
</svg>
